<svg xmlns="http://www.w3.org/2000/svg" width="1600" height="1000" viewBox="0 0 1600 1000">
  <rect width="1600" height="1000" fill="#eef1f5"/>
  <rect x="25" y="20" width="1550" height="60" rx="8" fill="#26364a"/>
  <text x="55" y="58" fill="white" font-size="28" font-family="sans-serif" font-weight="bold">5孔ピトー管 較正Gコード生成ソフト</text>
  <text x="1320" y="57" fill="#c9d6e5" font-size="18" font-family="sans-serif">Windows 11 / GRBL Mega-5X</text>

  <rect x="25" y="100" width="470" height="850" rx="8" fill="white" stroke="#c8d0da"/>
  <text x="50" y="140" fill="#26364a" font-size="25" font-family="sans-serif" font-weight="bold">較正条件</text>
  <line x1="50" y1="155" x2="470" y2="155" stroke="#d4dbe3"/>
  <text x="50" y="190" fill="#2d3748" font-size="18" font-family="sans-serif" font-weight="bold">較正対象角度</text>
  <g font-family="Arial,sans-serif" font-size="16" fill="#374151">
    <text x="55" y="225">AoA range [deg]</text><rect x="260" y="207" width="75" height="30" fill="#fff" stroke="#aab5c2"/><text x="278" y="228">-20</text><text x="345" y="228">to</text><rect x="370" y="207" width="75" height="30" fill="#fff" stroke="#aab5c2"/><text x="389" y="228">20</text>
    <text x="55" y="270">AoS range [deg]</text><rect x="260" y="252" width="75" height="30" fill="#fff" stroke="#aab5c2"/><text x="278" y="273">-10</text><text x="345" y="273">to</text><rect x="370" y="252" width="75" height="30" fill="#fff" stroke="#aab5c2"/><text x="389" y="273">10</text>
    <text x="55" y="315">AoA points</text><rect x="260" y="297" width="75" height="30" fill="#fff" stroke="#aab5c2"/><text x="291" y="318">20</text>
    <text x="55" y="360">AoS points</text><rect x="260" y="342" width="75" height="30" fill="#fff" stroke="#aab5c2"/><text x="291" y="363">10</text>
  </g>
  <text x="50" y="410" fill="#2d3748" font-size="18" font-family="sans-serif" font-weight="bold">寸法 [mm]</text>
  <g font-family="Arial,sans-serif" font-size="16" fill="#374151">
    <text x="55" y="445">Pitch center → tip, X</text><rect x="300" y="427" width="145" height="30" fill="#fff" stroke="#aab5c2"/><text x="360" y="448">200</text>
    <text x="55" y="490">Pitch center → tip, Y</text><rect x="300" y="472" width="145" height="30" fill="#fff" stroke="#aab5c2"/><text x="360" y="493">150</text>
  </g>
  <text x="50" y="540" fill="#2d3748" font-size="18" font-family="sans-serif" font-weight="bold">移動条件</text>
  <g font-family="Arial,sans-serif" font-size="16" fill="#374151">
    <text x="55" y="575">Hold time [s]</text><rect x="300" y="557" width="145" height="30" fill="#fff" stroke="#aab5c2"/><text x="360" y="578">3.0</text>
    <text x="55" y="620">X speed [mm/s]</text><rect x="300" y="602" width="145" height="30" fill="#fff" stroke="#aab5c2"/><text x="360" y="623">20</text>
    <text x="55" y="665">Y speed [mm/s]</text><rect x="300" y="647" width="145" height="30" fill="#fff" stroke="#aab5c2"/><text x="360" y="668">20</text>
    <text x="55" y="710">Z speed [deg/s]</text><rect x="300" y="692" width="145" height="30" fill="#fff" stroke="#aab5c2"/><text x="360" y="713">10</text>
    <text x="55" y="755">A speed [deg/s]</text><rect x="300" y="737" width="145" height="30" fill="#fff" stroke="#aab5c2"/><text x="360" y="758">10</text>
  </g>
  <text x="50" y="810" fill="#2d3748" font-size="18" font-family="sans-serif" font-weight="bold">オプション</text>
  <g font-family="Arial,sans-serif" font-size="16" fill="#374151">
    <rect x="55" y="830" width="19" height="19" fill="#2d72c8"/><text x="84" y="846">実軸移動量を最小化</text>
    <rect x="55" y="865" width="19" height="19" fill="#2d72c8"/><text x="84" y="881">蛇行走査を使用</text>
    <rect x="55" y="900" width="19" height="19" fill="#2d72c8"/><text x="84" y="916">Gコードにコメントを付加</text>
    <rect x="245" y="830" width="19" height="19" fill="#2d72c8"/><text x="274" y="846">正確なAoA/AoSで較正</text>
    <rect x="245" y="865" width="19" height="19" fill="#e2a329"/><text x="274" y="881">非正確モード：実AoA/AoSを表示</text>
  </g>

  <rect x="520" y="100" width="1055" height="850" rx="8" fill="white" stroke="#c8d0da"/>
  <text x="550" y="140" fill="#26364a" font-size="25" font-family="sans-serif" font-weight="bold">較正点マップ：AoA / AoS</text>
  <rect x="565" y="175" width="640" height="520" fill="#fbfcfe" stroke="#c8d0da"/>
  <line x1="885" y1="190" x2="885" y2="680" stroke="#9aa8b8"/><line x1="580" y1="435" x2="1190" y2="435" stroke="#9aa8b8"/>
  <text x="1180" y="460" fill="#374151" font-size="17" font-family="Arial,sans-serif">AoS [deg]</text><text x="835" y="200" fill="#374151" font-size="17" font-family="Arial,sans-serif">AoA [deg]</text>
  <g fill="#3a82d4"> 
    <circle cx="650" cy="610" r="7"/><circle cx="705" cy="610" r="7"/><circle cx="760" cy="610" r="7"/><circle cx="815" cy="610" r="7"/><circle cx="870" cy="610" r="7"/><circle cx="925" cy="610" r="7"/><circle cx="980" cy="610" r="7"/><circle cx="1035" cy="610" r="7"/><circle cx="1090" cy="610" r="7"/><circle cx="1145" cy="610" r="7"/>
    <circle cx="650" cy="540" r="7"/><circle cx="705" cy="540" r="7"/><circle cx="760" cy="540" r="7"/><circle cx="815" cy="540" r="7"/><circle cx="870" cy="540" r="7"/><circle cx="925" cy="540" r="7"/><circle cx="980" cy="540" r="7"/><circle cx="1035" cy="540" r="7"/><circle cx="1090" cy="540" r="7"/><circle cx="1145" cy="540" r="7"/>
    <circle cx="650" cy="470" r="7"/><circle cx="705" cy="470" r="7"/><circle cx="760" cy="470" r="7"/><circle cx="815" cy="470" r="7"/><circle cx="870" cy="470" r="7"/><circle cx="925" cy="470" r="7"/><circle cx="980" cy="470" r="7"/><circle cx="1035" cy="470" r="7"/><circle cx="1090" cy="470" r="7"/><circle cx="1145" cy="470" r="7"/>
    <circle cx="650" cy="400" r="7"/><circle cx="705" cy="400" r="7"/><circle cx="760" cy="400" r="7"/><circle cx="815" cy="400" r="7"/><circle cx="870" cy="400" r="7"/><circle cx="925" cy="400" r="7"/><circle cx="980" cy="400" r="7"/><circle cx="1035" cy="400" r="7"/><circle cx="1090" cy="400" r="7" fill="#e45b5b"/><circle cx="1145" cy="400" r="7"/>
    <circle cx="650" cy="330" r="7"/><circle cx="705" cy="330" r="7"/><circle cx="760" cy="330" r="7"/><circle cx="815" cy="330" r="7"/><circle cx="870" cy="330" r="7"/><circle cx="925" cy="330" r="7"/><circle cx="980" cy="330" r="7"/><circle cx="1035" cy="330" r="7"/><circle cx="1090" cy="330" r="7"/><circle cx="1145" cy="330" r="7"/>
  </g>
  <text x="585" y="725" fill="#374151" font-size="16" font-family="sans-serif">青：範囲内</text><circle cx="575" cy="719" r="7" fill="#3a82d4"/><text x="755" y="725" fill="#374151" font-size="16" font-family="sans-serif">赤：飽和</text><circle cx="745" cy="719" r="7" fill="#e45b5b"/>

  <rect x="1240" y="175" width="300" height="520" fill="#f7f9fb" stroke="#d1d9e2"/>
  <text x="1260" y="215" fill="#26364a" font-size="20" font-family="Arial,sans-serif" font-weight="bold">Summary</text>
  <g font-family="Arial,sans-serif" font-size="16" fill="#374151">
    <text x="1260" y="260">Points: 200</text><text x="1260" y="295">Estimated time: 12:36</text><text x="1260" y="330">Z range: -20.0 ... 20.0 deg</text><text x="1260" y="365">A range: -45.0 ... 45.0 deg</text>
    <text x="1260" y="425" fill="#c23b3b" font-weight="bold">Warnings: 1 axis saturated</text><text x="1260" y="460">X deviation max: 12.4 mm</text><text x="1260" y="495">Y deviation max: 0.0 mm</text>
  </g>
  <rect x="550" y="760" width="230" height="55" rx="6" fill="#4c8ed9"/><text x="620" y="795" fill="white" font-size="19" font-family="sans-serif" font-weight="bold">シミュレーション</text>
  <rect x="800" y="760" width="230" height="55" rx="6" fill="#2f9b69"/><text x="860" y="795" fill="white" font-size="19" font-family="sans-serif" font-weight="bold">Gコード生成</text>
  <rect x="1050" y="760" width="230" height="55" rx="6" fill="#6b7280"/><text x="1115" y="795" fill="white" font-size="19" font-family="sans-serif" font-weight="bold">設定保存</text>
  <rect x="1300" y="760" width="230" height="55" rx="6" fill="#6b7280"/><text x="1365" y="795" fill="white" font-size="19" font-family="sans-serif" font-weight="bold">設定読込</text>
  <rect x="550" y="830" width="960" height="45" fill="#fff4d6" stroke="#e2a329"/><text x="570" y="858" fill="#9a6b00" font-size="16" font-family="sans-serif">警告：AoA/AoSの入力範囲が±30°を超えるため、生成できません</text>
  <text x="550" y="900" fill="#596579" font-size="16" font-family="sans-serif">初期化Gコード：テキストファイルを読み込む</text>
  <rect x="550" y="915" width="960" height="25" fill="#f8fafc" stroke="#c8d0da"/>
  <rect x="550" y="895" width="960" height="35" fill="#f8fafc" stroke="#c8d0da"/>
</svg>
